<?xml version="1.0" standalone="no"?><!DOCTYPE svg PUBLIC "-//W3C//DTD SVG 1.1//EN" "http://www.w3.org/Graphics/SVG/1.1/DTD/svg11.dtd"><svg t="1492840720006" class="icon" style="" viewBox="0 0 1024 1024" version="1.1" xmlns="http://www.w3.org/2000/svg" p-id="4645" xmlns:xlink="http://www.w3.org/1999/xlink" width="200" height="200"><defs><style type="text/css"></style></defs><path d="M184.217 504.305c0 0.002 0 0.005 0 0.007 0 180.080 145.981 326.061 326.061 326.061 180.080 0 326.061-145.981 326.061-326.061 0-0.003 0-0.005 0-0.054 0-0.002 0-0.004 0-0.007 0-180.080-145.981-326.061-326.061-326.061-180.080 0-326.061 145.981-326.061 326.061 0 0.003 0 0.005 0 0.054z" fill="#E2C848" p-id="4646"></path><path d="M401.346 596.948c0 0.001 0 0.002 0 0.003 0 23.734 19.25 42.985 42.985 42.985 23.734 0 42.985-19.25 42.985-42.985 0-0.001 0-0.002 0-0.003 0-0.001 0-0.002 0-0.003 0-23.734-19.25-42.985-42.985-42.985-23.734 0-42.985 19.25-42.985 42.985s0 0.002 0 0.003z" fill="#FFFFFF" p-id="4647"></path><path d="M510.284 865.199c-199.341 0-360.892-161.542-360.892-360.892s161.542-360.892 360.892-360.892c199.341 0 360.892 161.542 360.892 360.892s-161.542 360.892-360.892 360.892zM510.284 187.889c-174.149 0-316.422 142.278-316.422 316.422s142.278 316.422 316.422 316.422c174.149 0 316.422-142.278 316.422-316.422s-142.278-316.422-316.422-316.422z" fill="#000000" p-id="4648"></path><path d="M402.092 594.727c-2.965 0-5.93-0.751-8.891-2.234-187.482-83.727-370.515-219.342-331.248-317.91 21.483-54.090 100.045-74.853 226.026-60.026 11.849 1.477 20.757 12.595 19.268 24.444s-12.595 20.757-24.444 19.268c-117.825-14.073-169.7 7.402-180.077 31.862-20.004 50.387 98.548 166.732 307.525 260.103 11.108 5.193 16.3 18.529 11.108 29.651-2.965 9.619-11.108 14.825-19.268 14.825zM811.888 699.217c-91.149 0-208.983-26.682-316.422-65.212-11.849-4.45-17.787-17.029-13.34-28.164 4.45-11.849 17.029-17.787 28.164-13.34 221.566 79.291 392.011 77.811 412.767 25.938 11.108-26.682-20.004-74.853-80.038-124.483-9.619-8.143-11.108-21.483-2.965-31.125 8.143-9.619 21.483-11.108 31.125-2.965 79.291 65.212 112.639 127.465 93.37 174.882-18.529 45.945-76.332 64.463-152.652 64.463z" fill="#000000" p-id="4649"></path><path d="M445.070 671.797c-40.019 0-72.619-32.614-72.619-72.619s32.614-72.619 72.619-72.619 72.619 32.614 72.619 72.619-32.614 72.619-72.619 72.619zM445.070 571.012c-15.558 0-28.164 12.595-28.164 28.164s12.595 28.164 28.164 28.164 28.164-12.595 28.164-28.164c0-15.558-12.595-28.164-28.164-28.164z" fill="#000000" p-id="4650"></path></svg>